HIERARCHY
ROOT Hips
{
	OFFSET -3.958830 18.904000 13.208200
	CHANNELS 6 Xposition Yposition Zposition Zrotation Yrotation Xrotation 
	JOINT LHipJoint
	{
		OFFSET 0.000000 0.000000 0.000000
		CHANNELS 3 Zrotation Yrotation Xrotation
		JOINT LeftUpLeg
		{
			OFFSET 1.800000 -1.400000 0.085000
			CHANNELS 3 Zrotation Yrotation Xrotation
			JOINT LeftLeg
			{
				OFFSET 2.215000 -6.000000 0.000000
				CHANNELS 3 Zrotation Yrotation Xrotation
				JOINT LeftFoot
				{
					OFFSET 2.500000 -6.900000 0.000000
					CHANNELS 3 Zrotation Yrotation Xrotation
					JOINT LeftToeBase
					{
						OFFSET 0.200000 -0.500000 1.950000
						CHANNELS 3 Zrotation Yrotation Xrotation
						End Site
						{
							OFFSET 0.000000 0.000000 0.000000
						}
					}
				}
			}
		}
	}
	JOINT RHipJoint
	{
		OFFSET 0.000000 0.000000 0.000000
		CHANNELS 3 Zrotation Yrotation Xrotation
		JOINT RightUpLeg
		{
			OFFSET -1.800000 -1.400000 0.085000
			CHANNELS 3 Zrotation Yrotation Xrotation
			JOINT RightLeg
			{
				OFFSET -2.215000 -6.000000 0.000000
				CHANNELS 3 Zrotation Yrotation Xrotation
				JOINT RightFoot
				{
					OFFSET -2.500000 -6.900000 0.000000
					CHANNELS 3 Zrotation Yrotation Xrotation
					JOINT RightToeBase
					{
						OFFSET -0.200000 -0.500000 1.950000
						CHANNELS 3 Zrotation Yrotation Xrotation
						End Site
						{
							OFFSET 0.000000 0.000000 0.000000
						}
					}
				}
			}
		}
	}
	JOINT LowerBack
	{
		OFFSET 0.000000 0.000000 0.000000
		CHANNELS 3 Zrotation Yrotation Xrotation
		JOINT Spine
		{
			OFFSET -0.087000 1.940000 -0.288900
			CHANNELS 3 Zrotation Yrotation Xrotation
			JOINT Spine1
			{
				OFFSET 0.000000 1.950000 0.060000
				CHANNELS 3 Zrotation Yrotation Xrotation
				JOINT Neck
				{
					OFFSET 0.000000 0.000000 0.000000
					CHANNELS 3 Zrotation Yrotation Xrotation
					JOINT Neck1
					{
						OFFSET 0.000000 1.600000 0.340000
						CHANNELS 3 Zrotation Yrotation Xrotation
						JOINT Head
						{
							OFFSET 0.000000 1.667000 -0.240000
							CHANNELS 3 Zrotation Yrotation Xrotation
							End Site
							{
								OFFSET 0.000000 0.000000 0.000000
							}
						}
					}
				}
				JOINT LeftShoulder
				{
					OFFSET 0.000000 0.000000 0.000000
					CHANNELS 3 Zrotation Yrotation Xrotation
					JOINT LeftArm
					{
						OFFSET 2.700000 1.550000 -0.730000
						CHANNELS 3 Zrotation Yrotation Xrotation
						JOINT LeftForeArm
						{
							OFFSET 5.450000 0.000000 0.000000
							CHANNELS 3 Zrotation Yrotation Xrotation
							JOINT LeftHand
							{
								OFFSET 3.450000 0.000000 0.000000
								CHANNELS 3 Zrotation Yrotation Xrotation
								JOINT LeftHandIndex1
								{
									OFFSET 0.750000 0.000000 0.000000
									CHANNELS 3 Zrotation Yrotation Xrotation
									End Site
									{
										OFFSET 0.000000 0.000000 0.000000
									}
								}
							}
						}
					}
				}
				JOINT RightShoulder
				{
					OFFSET 0.000000 0.000000 0.000000
					CHANNELS 3 Zrotation Yrotation Xrotation
					JOINT RightArm
					{
						OFFSET -2.700000 1.550000 -0.730000
						CHANNELS 3 Zrotation Yrotation Xrotation
						JOINT RightForeArm
						{
							OFFSET -5.450000 0.000000 0.000000
							CHANNELS 3 Zrotation Yrotation Xrotation
							JOINT RightHand
							{
								OFFSET -3.450000 0.000000 0.000000
								CHANNELS 3 Zrotation Yrotation Xrotation
								JOINT RightHandIndex1
								{
									OFFSET -0.750000 0.000000 0.000000
									CHANNELS 3 Zrotation Yrotation Xrotation
									End Site
									{
										OFFSET 0.000000 0.000000 0.000000
									}
								}
							}
						}
					}
				}
			}
		}
	}
}
MOTION
Frames: 10
Frame Time: 0.016667
-0.827610 17.137710 -2.764960 -3.166656 -6.557691 9.435692 -15.320553 12.808683 3.264552 1.887061 -2.834234 -26.414596 -5.244833 5.072795 13.535878 -0.771458 3.063757 3.478722 0.036680 -0.228320 0.065760 18.059653 -10.512783 3.396878 -3.960501 3.568605 -18.086974 15.910454 -4.407346 6.788186 0.067417 -3.053626 3.451274 0.012520 0.266210 -0.132380 -2.993397 -1.151670 -7.876336 -0.048203 5.146360 17.786432 7.810542 5.616906 5.703617 -0.218716 -3.576509 -12.137267 -5.761229 2.721135 28.849090 2.752470 0.113650 -10.034520 -19.082828 -11.326580 9.792919 -59.299880 6.098433 -9.430847 -87.241582 -56.998834 40.500572 -3.762999 3.317726 0.421500 0.073210 -0.289210 -0.056390 20.524532 19.954431 5.027646 31.949037 17.740500 -6.125189 -7.926286 26.514670 -2.351241 2.096457 -1.142090 -0.411710 0.335280 0.242470 -0.274600 
-0.796300 17.178730 -2.772940 -3.164389 -6.275312 9.200532 -15.274765 12.842297 3.286158 2.028028 -2.765657 -25.801523 -5.665010 4.973409 12.582604 -0.764117 3.023336 3.489963 0.020670 -0.250060 0.043650 18.085838 -10.526658 3.426615 -3.867753 3.430484 -17.349636 15.795186 -4.292506 6.018067 0.060192 -3.044014 3.462029 -0.009290 0.254210 -0.134990 -3.097314 -1.197943 -7.968146 1.564673 4.653130 18.984286 6.363564 5.653348 5.390843 -0.006570 -4.439137 -12.441132 -7.372778 2.565983 29.063562 3.295730 -0.678720 -10.535540 -19.386109 -11.174143 9.874840 -57.869143 6.912248 -9.486085 -90.980364 -58.478649 44.271165 -3.761958 3.314256 0.438730 0.051190 -0.284720 -0.065000 20.315418 20.296794 5.473512 31.583401 16.824791 -6.230669 -8.122647 25.852325 -2.273101 2.110892 -1.123097 -0.406930 0.325980 0.256640 -0.270830 
-0.741110 17.246240 -2.778450 -3.031223 -5.803821 9.182580 -15.200470 12.841440 3.327206 2.078831 -2.713946 -24.781442 -6.517038 4.765674 10.646649 -0.724313 2.934889 3.526322 0.016100 -0.257820 0.023390 18.139310 -10.530703 3.470773 -4.053434 3.184499 -16.056293 15.872441 -4.110020 4.559022 0.026527 -3.080273 3.463184 -0.039380 0.228660 -0.131280 -3.285605 -1.221065 -8.089380 4.054201 3.795271 20.394955 3.978527 5.610370 4.663094 0.380117 -5.721248 -12.837421 -9.805497 2.365981 29.170416 3.771670 -1.687820 -11.126970 -19.873159 -10.537542 9.917936 -55.479976 8.685683 -9.632430 -96.550897 -59.670093 49.413862 -3.744412 3.323127 0.450440 0.017900 -0.268440 -0.063050 19.888218 20.379289 6.024178 31.153020 15.318134 -5.957580 -7.718766 24.102250 -1.941451 2.154972 -1.104430 -0.379240 0.300600 0.254300 -0.256660 
-0.676400 17.334230 -2.794020 -3.064223 -5.138304 8.388408 -15.126556 12.953350 3.359288 2.480288 -2.425893 -22.989213 -7.588970 4.657789 8.658821 -0.631643 2.918776 3.555477 0.012630 -0.263960 0.028580 18.179751 -10.505756 3.513346 -4.222997 2.822460 -13.751726 16.001871 -4.015108 3.287908 -0.046516 -3.146689 3.467797 -0.085960 0.178350 -0.158520 -3.453035 -1.479642 -8.228008 7.311686 2.376376 23.432039 1.135967 5.541797 3.494230 0.982369 -7.708410 -13.668332 -13.837517 1.972953 29.984492 4.542280 -3.215440 -12.836360 -20.947128 -9.951337 9.994727 -52.022841 11.045333 -9.894001 -106.348643 -61.242378 58.989232 -3.702921 3.247484 0.487020 -0.057010 -0.223610 -0.059500 19.703570 21.131041 7.124044 29.998147 12.870842 -6.100825 -7.279895 22.752668 -1.554126 2.217844 -1.049513 -0.353110 0.303600 0.227570 -0.240910 
-0.610820 17.368570 -2.801970 -2.604908 -3.949755 8.890305 -15.018790 12.806394 3.413230 2.082632 -2.557717 -22.340717 -8.729284 4.511642 6.950763 -0.567669 2.876768 3.600330 0.014230 -0.248590 0.004310 18.298048 -10.545450 3.513048 -4.410355 2.499250 -12.773033 15.698629 -3.863694 2.205024 -0.074348 -3.192740 3.467903 -0.092470 0.173180 -0.183190 -3.794998 -1.246250 -8.236463 10.338405 1.289050 23.853334 -1.722947 5.304923 2.625945 0.856404 -8.863096 -13.544417 -16.122186 0.933017 28.971982 5.456760 -5.217880 -13.125280 -20.035037 -8.030167 9.631983 -48.504188 12.289071 -8.514459 -117.440448 -60.730461 70.098875 -3.652803 3.271685 0.462680 -0.083890 -0.224610 -0.035780 18.818012 19.442361 7.191316 30.571769 10.510418 -5.750576 -6.176767 21.676001 -1.196303 2.267718 -1.040108 -0.333470 0.308080 0.203120 -0.207550 
-0.534790 17.377680 -2.794450 -2.220064 -2.348645 10.034688 -14.906020 12.630204 3.473752 1.410558 -2.795965 -22.218471 -9.429914 4.265664 5.305082 -0.542303 2.830793 3.639156 0.001970 -0.262860 -0.042160 18.432727 -10.620342 3.457425 -4.304315 2.308154 -12.734795 15.040398 -3.880569 2.241541 -0.056132 -3.205647 3.471717 -0.102150 0.203710 -0.170800 -4.172960 -0.921778 -8.177499 13.811869 0.079866 22.944582 -4.669897 4.714769 1.380648 0.513269 -9.672190 -13.055990 -17.554822 0.058788 27.375887 5.992600 -7.000770 -12.263060 -19.250391 -5.628650 9.077082 -44.037732 13.919763 -6.509456 -125.163419 -58.565995 77.415978 -3.638834 3.383227 0.419870 -0.066100 -0.255230 -0.017940 18.409460 16.758837 6.871391 31.117351 7.606420 -5.561582 -4.447910 21.048132 -0.799590 2.290694 -1.052718 -0.314960 0.291300 0.210170 -0.175430 
-0.475420 17.365180 -2.776870 -1.396537 -0.054755 11.060820 -14.853847 12.520324 3.540305 0.697418 -3.024380 -22.091857 -10.407855 4.197025 4.253172 -0.522058 2.869936 3.654892 -0.012860 -0.269420 -0.084260 18.514757 -10.695656 3.321294 -3.658335 1.947923 -12.916138 13.269162 -3.916093 3.008648 -0.004115 -3.123040 3.517937 -0.095020 0.252800 -0.175600 -4.393932 -0.750488 -8.075886 15.751619 -0.819694 21.309929 -6.248126 3.857717 0.614929 -0.004872 -9.969250 -12.381566 -17.892971 -0.858137 25.744108 6.012570 -8.391420 -10.909860 -18.283590 -3.297687 8.543469 -39.746705 15.346280 -4.427338 -131.055605 -55.931561 82.747886 -3.655042 3.479591 0.365240 -0.030050 -0.298820 0.002360 18.238879 13.752081 6.297108 30.859974 4.666545 -5.386964 -1.949924 20.209975 -0.380246 2.308701 -1.059444 -0.315790 0.302670 0.216250 -0.146350 
-0.418780 17.350510 -2.755270 -1.012264 1.613859 11.019518 -14.801766 12.519834 3.582296 0.880235 -2.796243 -20.390038 -11.841618 4.186011 2.581833 -0.480938 3.053555 3.607386 -0.029210 -0.292210 -0.118780 18.583836 -10.811805 3.146853 -2.292196 1.464197 -12.489475 10.473461 -4.025908 4.887025 0.029412 -3.002790 3.564128 -0.105130 0.272580 -0.178620 -4.581257 -0.680652 -7.967571 18.202892 -2.054292 20.547261 -8.283396 2.955634 -0.008356 -0.204498 -10.613222 -12.208135 -19.407917 -0.850950 25.627055 6.682920 -9.337280 -10.446350 -17.490226 -1.757897 8.148248 -35.327098 16.763436 -2.923767 -134.188343 -53.319479 84.548269 -3.656857 3.550135 0.364460 -0.031050 -0.315370 0.008300 17.724627 11.945793 6.261939 30.794756 2.033887 -5.303185 1.083567 18.662170 0.022629 2.336907 -1.038163 -0.321620 0.306470 0.233150 -0.133720 
-0.358040 17.322790 -2.724590 -1.724394 3.313445 10.609376 -14.751124 12.545218 3.547978 2.230248 -2.324865 -18.635592 -12.892397 4.325972 1.785197 -0.417547 3.244997 3.537816 -0.001250 -0.261610 -0.089170 18.656148 -10.905743 3.042711 0.477909 1.083463 -11.897524 7.067528 -3.925591 6.976516 0.023700 -2.837089 3.615455 -0.101000 0.227000 -0.191270 -4.769483 -0.597994 -7.847566 22.068298 -3.482209 19.928478 -10.809825 2.191189 -0.729391 -0.029199 -10.986223 -11.940226 -20.526850 -1.173743 26.114363 6.859040 -9.865280 -11.413250 -16.207943 0.011187 7.351658 -31.160928 16.999831 -1.320946 -134.114858 -50.293116 82.053893 -3.599892 3.615944 0.383910 -0.074720 -0.283690 0.009860 15.890423 9.869467 6.259223 32.533184 -0.547034 -5.588224 3.694395 17.051321 0.215822 2.385857 -1.017674 -0.305200 0.301390 0.205520 -0.134300 
-0.314030 17.289010 -2.685900 -2.569557 3.824078 10.020339 -14.731907 12.612467 3.505657 3.774895 -1.862289 -16.770254 -13.641279 4.546143 1.422090 -0.361351 3.473772 3.465427 -0.006740 -0.277260 -0.078990 18.691439 -10.921766 3.009844 3.291640 0.779182 -11.138360 3.298709 -3.595611 8.707920 0.016418 -2.717785 3.662680 -0.119580 0.205690 -0.211110 -4.842255 -0.665407 -7.777233 24.920568 -4.540501 19.760767 -12.728934 1.765881 -1.681780 0.198124 -11.455167 -12.024692 -22.032018 -1.066951 26.860171 7.097350 -10.216460 -11.779490 -15.647737 1.181128 6.891780 -27.117679 18.001237 -0.159503 -135.668779 -47.951320 82.085416 -3.574425 3.628458 0.415180 -0.106910 -0.267170 0.006570 14.853875 8.704701 6.575175 33.679254 -3.430972 -6.181518 6.013839 16.026577 0.345235 2.412543 -0.982927 -0.312790 0.311450 0.198860 -0.140720 
